<svg xmlns="http://www.w3.org/2000/svg" width="600" height="1200" viewBox="0 0 600 1200">
  <defs>
    <style>
      .cls-1 {
        fill: #fff;
        fill-rule: evenodd;
      }
    </style>
  </defs>
  <g id="International_Engage_Banner_300x600_Frame_1" data-name="International Engage Banner 300x600 Frame 1">
    <path id="upon_arrival_copy" data-name="upon arrival? copy" class="cls-1" d="M148.5,2039.38h5.16c-0.12-5.22-.12-10.44-0.12-15.6v-14.7h-5.28v16.02c0,5.52-1.98,10.62-8.34,10.62-6.419,0-7.019-4.56-7.019-9.84v-16.8h-5.28v18.84c0,7.5,2.88,11.82,10.859,11.82,4.38,0,7.26-1.68,9.78-5.16Zm42.48-15.6c0-7.98-3.9-15.24-12.78-15.24a10.954,10.954,0,0,0-10.259,5.76l-0.18-5.22h-5.22c0.18,2.88.18,5.82,0.18,8.64v33.06H168v-15.96c2.519,3.42,5.159,5.1,9.539,5.1C186.659,2039.92,190.979,2031.94,190.979,2023.78Zm-5.52.36c0,5.82-2.22,12.06-9.06,12.06-6.54,0-8.459-6.42-8.459-11.88,0-5.76,2.339-12.06,9.059-12.06C183.479,2012.26,185.459,2018.74,185.459,2024.14Zm40.14-.06c0-9.24-5.22-15.66-14.82-15.66-9.419,0-15,6.54-15,15.66,0,9.18,5.28,15.96,14.939,15.96C220.139,2040.04,225.6,2033.02,225.6,2024.08Zm-5.52,0c0,5.76-2.64,12.36-9.36,12.36-6.839,0-9.359-6.48-9.359-12.36,0-5.94,2.58-11.88,9.359-11.88S220.079,2018.14,220.079,2024.08Zm33.18,15.3h5.28v-18.84c0-7.44-2.88-11.82-10.8-11.82a11.249,11.249,0,0,0-9.9,5.22l-0.18-4.86h-5.22c0.06,1.74.18,5.22,0.18,7.8v22.5h5.28v-15.12c0-5.58,1.8-11.52,8.339-11.52,6.42,0,7.02,4.56,7.02,9.84v16.8Zm50.34,0h4.62a36.7,36.7,0,0,1-.96-8.88v-11.16c0-7.92-3.78-10.86-11.52-10.86-5.7,0-11.039,2.16-11.339,8.76h5.16c0.36-3.96,2.579-5.34,6.3-5.34,4.98,0,6.66,2.64,6.66,7.32v1.8c-0.84-.06-1.92-0.12-3-0.12-7.38,0-17.339,1.08-17.339,10.14,0,6.18,4.98,9,10.619,9,4.38,0,7.74-1.26,10.26-4.92A34.453,34.453,0,0,0,303.6,2039.38Zm-1.08-15.18c0,6.12-.78,12.3-8.4,12.3-3.479,0-6.659-1.98-6.659-5.7,0-6.18,7.679-6.72,12.359-6.72A23.736,23.736,0,0,1,302.519,2024.2Zm30.36-10.2v-4.98a14.75,14.75,0,0,0-1.68-.12c-4.14,0-7.079,1.5-9.239,5.04l-0.24-4.86h-5.16c0.12,2.94.18,5.94,0.18,8.88v21.42h5.28v-16.32c0-5.76,2.04-9.3,8.279-9.3A17.918,17.918,0,0,1,332.879,2014Zm21.18,0v-4.98a14.75,14.75,0,0,0-1.68-.12c-4.14,0-7.08,1.5-9.239,5.04l-0.24-4.86h-5.16c0.12,2.94.18,5.94,0.18,8.88v21.42h5.28v-16.32c0-5.76,2.04-9.3,8.279-9.3A17.918,17.918,0,0,1,354.059,2014Zm4.741-12.66h5.88V1996H358.8v5.34Zm0.3,38.04h5.28v-30.3H359.1v30.3Zm28.2,0,12.6-30.3h-5.4l-9.6,25.2-9.419-25.2h-6l12.3,30.3h5.52Zm35.76,0h4.62a36.7,36.7,0,0,1-.96-8.88v-11.16c0-7.92-3.78-10.86-11.52-10.86-5.7,0-11.039,2.16-11.339,8.76h5.16c0.36-3.96,2.579-5.34,6.3-5.34,4.98,0,6.66,2.64,6.66,7.32v1.8c-0.84-.06-1.92-0.12-3-0.12-7.38,0-17.339,1.08-17.339,10.14,0,6.18,4.98,9,10.619,9,4.38,0,7.74-1.26,10.26-4.92A34.453,34.453,0,0,0,423.059,2039.38Zm-1.08-15.18c0,6.12-.78,12.3-8.4,12.3-3.479,0-6.659-1.98-6.659-5.7,0-6.18,7.679-6.72,12.359-6.72A23.736,23.736,0,0,1,421.979,2024.2Zm14.221,15.18h5.28V1996H436.2v43.38Zm36-33.12c0-8.28-6.72-10.98-13.92-10.98a39.057,39.057,0,0,0-6.9.72v4.38a22.513,22.513,0,0,1,6.24-.96c4.619,0,8.939,1.86,8.939,7.08,0,4.14-2.82,6.36-5.82,9.06-4.019,3.66-4.859,4.62-4.859,8.82v4.32H460.5v-4.32c0-1.86.36-2.64,2.46-4.56C468.119,2015.14,472.2,2011.66,472.2,2006.26Zm-17.039,33.12h6.059v-6.06H455.16v6.06Z" transform="translate(0 -1328)"/>
  </g>
</svg>
